<svg preserveAspectRatio="none" width="100%" height="100%" overflow="visible" style="display: block;" viewBox="0 0 16 16" fill="none" xmlns="http://www.w3.org/2000/svg">
<g id="BracketsSquare">
<path id="Vector" d="M3 3V13H5C5.13261 13 5.25979 13.0527 5.35355 13.1464C5.44732 13.2402 5.5 13.3674 5.5 13.5C5.5 13.6326 5.44732 13.7598 5.35355 13.8536C5.25979 13.9473 5.13261 14 5 14H2.5C2.36739 14 2.24021 13.9473 2.14645 13.8536C2.05268 13.7598 2 13.6326 2 13.5V2.5C2 2.36739 2.05268 2.24021 2.14645 2.14645C2.24021 2.05268 2.36739 2 2.5 2H5C5.13261 2 5.25979 2.05268 5.35355 2.14645C5.44732 2.24021 5.5 2.36739 5.5 2.5C5.5 2.63261 5.44732 2.75979 5.35355 2.85355C5.25979 2.94732 5.13261 3 5 3H3ZM13.5 2H11C10.8674 2 10.7402 2.05268 10.6464 2.14645C10.5527 2.24021 10.5 2.36739 10.5 2.5C10.5 2.63261 10.5527 2.75979 10.6464 2.85355C10.7402 2.94732 10.8674 3 11 3H13V13H11C10.8674 13 10.7402 13.0527 10.6464 13.1464C10.5527 13.2402 10.5 13.3674 10.5 13.5C10.5 13.6326 10.5527 13.7598 10.6464 13.8536C10.7402 13.9473 10.8674 14 11 14H13.5C13.6326 14 13.7598 13.9473 13.8536 13.8536C13.9473 13.7598 14 13.6326 14 13.5V2.5C14 2.36739 13.9473 2.24021 13.8536 2.14645C13.7598 2.05268 13.6326 2 13.5 2Z" fill="var(--fill-0, #E8DD9B)"/>
</g>
</svg>
