<svg preserveAspectRatio="none" width="100%" height="100%" overflow="visible" style="display: block;" viewBox="0 0 12.831 16.2179" fill="none" xmlns="http://www.w3.org/2000/svg">
<path id="Icon" d="M0.500001 2.26697C0.500001 1.45767 0.500001 1.05302 0.668743 0.829957C0.815746 0.635633 1.04044 0.515383 1.28367 0.50086C1.56286 0.48419 1.89955 0.70865 2.57293 1.15757L11.3359 6.99955C11.8923 7.37048 12.1705 7.55595 12.2675 7.78972C12.3522 7.9941 12.3522 8.2238 12.2675 8.42817C12.1705 8.66194 11.8923 8.84741 11.3359 9.21835L2.57293 15.0603C1.89955 15.5092 1.56286 15.7337 1.28367 15.717C1.04044 15.7025 0.815746 15.5823 0.668743 15.3879C0.500001 15.1649 0.500001 14.7602 0.500001 13.9509V2.26697Z" stroke="var(--stroke-0, #747577)" stroke-linecap="round" stroke-linejoin="round"/>
</svg>
