<svg preserveAspectRatio="none" width="100%" height="100%" overflow="visible" style="display: block;" viewBox="0 0 13 13" fill="none" xmlns="http://www.w3.org/2000/svg">
<path id="Icon" d="M2.5 0.5V8.5M2.5 8.5C1.39543 8.5 0.5 9.39543 0.5 10.5C0.5 11.6046 1.39543 12.5 2.5 12.5C3.60457 12.5 4.5 11.6046 4.5 10.5M2.5 8.5C3.60457 8.5 4.5 9.39543 4.5 10.5M10.5 4.5C11.6046 4.5 12.5 3.60457 12.5 2.5C12.5 1.39543 11.6046 0.5 10.5 0.5C9.39543 0.5 8.5 1.39543 8.5 2.5C8.5 3.60457 9.39543 4.5 10.5 4.5ZM10.5 4.5C10.5 6.0913 9.86786 7.61742 8.74264 8.74264C7.61742 9.86786 6.0913 10.5 4.5 10.5" stroke="var(--stroke-0, #747577)" stroke-linecap="round" stroke-linejoin="round"/>
</svg>
