<svg preserveAspectRatio="none" width="100%" height="100%" overflow="visible" style="display: block;" viewBox="0 0 16 16" fill="none" xmlns="http://www.w3.org/2000/svg">
<g id="PaperPlaneTilt" clip-path="url(#clip0_18_315)">
<path id="Vector" d="M14.4625 2.77125C14.4625 2.77125 14.4625 2.7775 14.4625 2.78062L10.825 14.7769C10.7699 14.9717 10.6566 15.1451 10.5002 15.2736C10.3438 15.4022 10.1518 15.4799 9.95 15.4962C9.92125 15.4987 9.8925 15.5 9.86375 15.5C9.67462 15.5006 9.48927 15.4471 9.32958 15.3457C9.16989 15.2444 9.04252 15.0995 8.9625 14.9281L6.6875 10.2594C6.66474 10.2126 6.65714 10.1599 6.66577 10.1085C6.67439 10.0572 6.69881 10.0099 6.73563 9.97312L10.3556 6.35312C10.4454 6.25859 10.4948 6.13272 10.4931 6.00234C10.4914 5.87196 10.4389 5.74739 10.3467 5.65518C10.2545 5.56298 10.1299 5.51045 9.99954 5.50878C9.86916 5.50711 9.74328 5.55644 9.64875 5.64625L6.02688 9.26625C5.9901 9.30306 5.94276 9.32748 5.89145 9.33611C5.84014 9.34474 5.78741 9.33714 5.74063 9.31437L1.0675 7.04C0.884762 6.95233 0.732978 6.8112 0.632261 6.63532C0.531543 6.45944 0.486648 6.2571 0.503525 6.05512C0.520401 5.85315 0.598253 5.66107 0.726762 5.50434C0.855272 5.34761 1.02837 5.23363 1.22313 5.1775L13.2194 1.54H13.2288C13.3996 1.49201 13.58 1.49033 13.7517 1.53513C13.9234 1.57992 14.08 1.66958 14.2056 1.7949C14.3312 1.92023 14.4212 2.0767 14.4663 2.24828C14.5115 2.41985 14.5101 2.60035 14.4625 2.77125Z" fill="var(--fill-0, #131217)"/>
</g>
<defs>
<clipPath id="clip0_18_315">
<rect width="16" height="16" fill="white"/>
</clipPath>
</defs>
</svg>
