<svg preserveAspectRatio="none" width="100%" height="100%" overflow="visible" style="display: block;" viewBox="0 0 17.3714 17.4027" fill="none" xmlns="http://www.w3.org/2000/svg">
<path id="Icon" d="M6.33331 7.88992L9.48146 11.0381M5.47904 16.0171C4.34001 17.1562 2.16667 16.8714 0.5 16.8714C1.35425 15.2047 0.215221 13.0314 1.35425 11.8923C2.49328 10.7533 4.34001 10.7533 5.47904 11.8923C6.61807 13.0314 6.61807 14.8781 5.47904 16.0171ZM8.768 11.8086L16.3823 3.58518C17.0529 2.86088 17.0313 1.73606 16.3333 1.03807C15.6353 0.340074 14.5105 0.318449 13.7862 0.989101L5.56278 8.60335C5.13783 8.99682 4.92536 9.19356 4.80144 9.40338C4.50429 9.90651 4.49233 10.5285 4.76993 11.0427C4.88569 11.2571 5.09045 11.4619 5.49996 11.8714C5.90947 12.2809 6.11422 12.4857 6.32865 12.6014C6.84283 12.879 7.46484 12.8671 7.96798 12.5699C8.1778 12.446 8.37453 12.2335 8.768 11.8086Z" stroke="var(--stroke-0, #747577)" stroke-linecap="round" stroke-linejoin="round"/>
</svg>
