<svg preserveAspectRatio="none" width="100%" height="100%" overflow="visible" style="display: block;" viewBox="0 0 16 16" fill="none" xmlns="http://www.w3.org/2000/svg">
<path id="Icon" d="M3 0.5V10.5M3 10.5C1.61929 10.5 0.5 11.6193 0.5 13C0.5 14.3807 1.61929 15.5 3 15.5C4.38071 15.5 5.5 14.3807 5.5 13M3 10.5C4.38071 10.5 5.5 11.6193 5.5 13M13 5.5C14.3807 5.5 15.5 4.38071 15.5 3C15.5 1.61929 14.3807 0.5 13 0.5C11.6193 0.5 10.5 1.61929 10.5 3C10.5 4.38071 11.6193 5.5 13 5.5ZM13 5.5C13 7.48912 12.2098 9.39678 10.8033 10.8033C9.39678 12.2098 7.48912 13 5.5 13" stroke="var(--stroke-0, #747577)" stroke-linecap="round" stroke-linejoin="round"/>
</svg>
