<svg preserveAspectRatio="none" width="100%" height="100%" overflow="visible" style="display: block;" viewBox="0 0 29.3338 23.8901" fill="none" xmlns="http://www.w3.org/2000/svg">
<path id="vector" d="M13.3336 3.8901H16.9242C17.1775 3.8901 17.4089 3.74654 17.5214 3.5196L18.4257 1.696C18.5631 1.41905 18.8712 1.27361 19.1684 1.35883C20.0422 1.60941 21.8761 2.21398 23.3392 3.22343C28.4912 7.0864 28.0107 15.743 27.9717 17.5713C27.9693 17.6829 27.9408 17.7929 27.8858 17.89C25.2416 22.5568 20.6549 22.5568 20.6549 22.5568L19.0999 19.3218M16.0002 3.8901H12.4161C12.1634 3.8901 11.9324 3.74715 11.8195 3.52096L10.9086 1.69436C10.7709 1.41824 10.4632 1.27345 10.1666 1.35849C9.29327 1.60887 7.45834 2.21352 5.99458 3.22343C0.842631 7.0864 1.32313 15.743 1.3621 17.5713C1.36448 17.6829 1.39298 17.7929 1.448 17.89C4.09215 22.5568 8.67885 22.5568 8.67885 22.5568L10.2388 19.3212M8.00193 18.5568C8.80149 18.8565 9.54112 19.1113 10.2388 19.3212M21.3387 18.5568C20.5384 18.8568 19.7982 19.1118 19.0999 19.3218M10.2388 19.3212C13.4978 20.3017 15.8413 20.3019 19.0999 19.3218M12.003 11.8901C12.003 12.6265 11.4059 13.2234 10.6693 13.2234C9.93272 13.2234 9.33561 12.6265 9.33561 11.8901C9.33561 11.1537 9.93272 10.5568 10.6693 10.5568C11.4059 10.5568 12.003 11.1537 12.003 11.8901ZM20.005 11.8901C20.005 12.6265 19.4079 13.2234 18.6713 13.2234C17.9348 13.2234 17.3377 12.6265 17.3377 11.8901C17.3377 11.1537 17.9348 10.5568 18.6713 10.5568C19.4079 10.5568 20.005 11.1537 20.005 11.8901Z" stroke="url(#paint0_linear_18_167)" stroke-width="2.66667" stroke-linecap="round" stroke-linejoin="round"/>
<defs>
<linearGradient id="paint0_linear_18_167" x1="14.6669" y1="1.33422" x2="14.6668" y2="24.0988" gradientUnits="userSpaceOnUse">
<stop offset="0.448003" stop-color="#B590FF"/>
<stop offset="1" stop-color="#AD3EE9"/>
</linearGradient>
</defs>
</svg>
