<svg preserveAspectRatio="none" width="100%" height="100%" overflow="visible" style="display: block;" viewBox="0 0 16 16" fill="none" xmlns="http://www.w3.org/2000/svg">
<g id="Code">
<path id="Vector" d="M4.32 5.88437L1.78125 8L4.32 10.1156C4.3719 10.1572 4.415 10.2087 4.44676 10.2671C4.47853 10.3255 4.49833 10.3896 4.505 10.4558C4.51168 10.5219 4.50509 10.5887 4.48563 10.6523C4.46617 10.7159 4.43422 10.7749 4.39166 10.826C4.3491 10.8771 4.29679 10.9192 4.23777 10.9498C4.17875 10.9804 4.11422 10.9989 4.04795 11.0043C3.98169 11.0097 3.91501 11.0018 3.85183 10.9811C3.78865 10.9604 3.73024 10.9273 3.68 10.8837L0.68 8.38375C0.623708 8.33683 0.578419 8.2781 0.547339 8.21173C0.51626 8.14536 0.50015 8.07297 0.50015 7.99969C0.50015 7.9264 0.51626 7.85401 0.547339 7.78764C0.578419 7.72128 0.623708 7.66255 0.68 7.61563L3.68 5.11562C3.78194 5.03076 3.91342 4.98986 4.04552 5.00193C4.17762 5.014 4.29951 5.07806 4.38437 5.18C4.46924 5.28194 4.51014 5.41342 4.49807 5.54552C4.486 5.67762 4.42194 5.79951 4.32 5.88437ZM15.32 7.61563L12.32 5.11562C12.2695 5.0736 12.2113 5.04193 12.1485 5.02243C12.0858 5.00292 12.0199 4.99595 11.9545 5.00193C11.8891 5.00791 11.8255 5.02671 11.7673 5.05726C11.7092 5.08782 11.6576 5.12952 11.6156 5.18C11.5308 5.28194 11.4899 5.41342 11.5019 5.54552C11.514 5.67762 11.5781 5.79951 11.68 5.88437L14.2187 8L11.68 10.1156C11.6281 10.1572 11.585 10.2087 11.5532 10.2671C11.5215 10.3255 11.5017 10.3896 11.495 10.4558C11.4883 10.5219 11.4949 10.5887 11.5144 10.6523C11.5338 10.7159 11.5658 10.7749 11.6083 10.826C11.6509 10.8771 11.7032 10.9192 11.7622 10.9498C11.8212 10.9804 11.8858 10.9989 11.952 11.0043C12.0183 11.0097 12.085 11.0018 12.1482 10.9811C12.2113 10.9604 12.2698 10.9273 12.32 10.8837L15.32 8.38375C15.3763 8.33683 15.4216 8.2781 15.4527 8.21173C15.4837 8.14536 15.4998 8.07297 15.4998 7.99969C15.4998 7.9264 15.4837 7.85401 15.4527 7.78764C15.4216 7.72128 15.3763 7.66255 15.32 7.61563ZM10.1706 2.03C10.1089 2.00759 10.0434 1.99756 9.97777 2.00048C9.91218 2.0034 9.84779 2.01921 9.78831 2.047C9.72882 2.0748 9.67539 2.11405 9.63107 2.1625C9.58675 2.21095 9.5524 2.26765 9.53 2.32938L5.53 13.3294C5.5075 13.3911 5.49739 13.4567 5.50026 13.5224C5.50313 13.5881 5.51892 13.6525 5.54672 13.7121C5.57453 13.7716 5.61381 13.8251 5.66231 13.8695C5.71081 13.9139 5.76758 13.9482 5.82937 13.9706C5.88415 13.9901 5.94186 14 6 14C6.10268 14 6.20287 13.9684 6.28696 13.9095C6.37105 13.8505 6.43496 13.7671 6.47 13.6706L10.47 2.67062C10.4924 2.6089 10.5024 2.54337 10.4995 2.47778C10.4966 2.41218 10.4808 2.3478 10.453 2.28831C10.4252 2.22882 10.386 2.17539 10.3375 2.13107C10.2891 2.08675 10.2323 2.05241 10.1706 2.03Z" fill="var(--fill-0, #CB93DE)"/>
</g>
</svg>
