<svg preserveAspectRatio="none" width="100%" height="100%" overflow="visible" style="display: block;" viewBox="0 0 17.6667 16.0001" fill="none" xmlns="http://www.w3.org/2000/svg">
<path id="Icon" d="M9.66667 3.83339L8.73705 1.97416C8.4695 1.43906 8.33572 1.1715 8.13614 0.976028C7.95965 0.803167 7.74694 0.671703 7.5134 0.59115C7.2493 0.500058 6.95017 0.500058 6.35191 0.500058H3.16667C2.23325 0.500058 1.76654 0.500058 1.41002 0.681714C1.09641 0.841503 0.841445 1.09647 0.681656 1.41007C0.5 1.76659 0.5 2.2333 0.5 3.16672V3.83339M0.5 3.83339H13.1667C14.5668 3.83339 15.2669 3.83339 15.8016 4.10588C16.272 4.34556 16.6545 4.72801 16.8942 5.19842C17.1667 5.73319 17.1667 6.43326 17.1667 7.83339V11.5001C17.1667 12.9002 17.1667 13.6003 16.8942 14.135C16.6545 14.6054 16.272 14.9879 15.8016 15.2276C15.2669 15.5001 14.5668 15.5001 13.1667 15.5001H4.5C3.09987 15.5001 2.3998 15.5001 1.86502 15.2276C1.39462 14.9879 1.01217 14.6054 0.772484 14.135C0.5 13.6003 0.5 12.9002 0.5 11.5001V3.83339Z" stroke="var(--stroke-0, #747577)" stroke-linecap="round" stroke-linejoin="round"/>
</svg>
