<svg preserveAspectRatio="none" width="100%" height="100%" overflow="visible" style="display: block;" viewBox="0 0 16 16" fill="none" xmlns="http://www.w3.org/2000/svg">
<g id="Icon">
<path d="M5 0.500001H1.83333C1.36662 0.500001 1.13327 0.500001 0.955009 0.590829C0.798207 0.670724 0.670724 0.798207 0.590829 0.955009C0.500001 1.13327 0.500001 1.36662 0.500001 1.83333V5C0.500001 5.46671 0.500001 5.70007 0.590829 5.87833C0.670724 6.03513 0.798207 6.16261 0.955009 6.24251C1.13327 6.33333 1.36662 6.33333 1.83333 6.33333H5C5.46671 6.33333 5.70007 6.33333 5.87833 6.24251C6.03513 6.16261 6.16261 6.03513 6.24251 5.87833C6.33333 5.70007 6.33333 5.46671 6.33333 5V1.83333C6.33333 1.36662 6.33333 1.13327 6.24251 0.955009C6.16261 0.798207 6.03513 0.670724 5.87833 0.590829C5.70007 0.500001 5.46671 0.500001 5 0.500001Z" stroke="var(--stroke-0, #747577)" stroke-linecap="round" stroke-linejoin="round"/>
<path d="M14.1667 0.500001H11C10.5333 0.500001 10.2999 0.500001 10.1217 0.590829C9.96487 0.670724 9.83739 0.798207 9.7575 0.955009C9.66667 1.13327 9.66667 1.36662 9.66667 1.83333V5C9.66667 5.46671 9.66667 5.70007 9.7575 5.87833C9.83739 6.03513 9.96487 6.16261 10.1217 6.24251C10.2999 6.33333 10.5333 6.33333 11 6.33333H14.1667C14.6334 6.33333 14.8667 6.33333 15.045 6.24251C15.2018 6.16261 15.3293 6.03513 15.4092 5.87833C15.5 5.70007 15.5 5.46671 15.5 5V1.83333C15.5 1.36662 15.5 1.13327 15.4092 0.955009C15.3293 0.798207 15.2018 0.670724 15.045 0.590829C14.8667 0.500001 14.6334 0.500001 14.1667 0.500001Z" stroke="var(--stroke-0, #747577)" stroke-linecap="round" stroke-linejoin="round"/>
<path d="M14.1667 9.66667H11C10.5333 9.66667 10.2999 9.66667 10.1217 9.7575C9.96487 9.83739 9.83739 9.96487 9.7575 10.1217C9.66667 10.2999 9.66667 10.5333 9.66667 11V14.1667C9.66667 14.6334 9.66667 14.8667 9.7575 15.045C9.83739 15.2018 9.96487 15.3293 10.1217 15.4092C10.2999 15.5 10.5333 15.5 11 15.5H14.1667C14.6334 15.5 14.8667 15.5 15.045 15.4092C15.2018 15.3293 15.3293 15.2018 15.4092 15.045C15.5 14.8667 15.5 14.6334 15.5 14.1667V11C15.5 10.5333 15.5 10.2999 15.4092 10.1217C15.3293 9.96487 15.2018 9.83739 15.045 9.7575C14.8667 9.66667 14.6334 9.66667 14.1667 9.66667Z" stroke="var(--stroke-0, #747577)" stroke-linecap="round" stroke-linejoin="round"/>
<path d="M5 9.66667H1.83333C1.36662 9.66667 1.13327 9.66667 0.955009 9.7575C0.798207 9.83739 0.670724 9.96487 0.590829 10.1217C0.500001 10.2999 0.500001 10.5333 0.500001 11V14.1667C0.500001 14.6334 0.500001 14.8667 0.590829 15.045C0.670724 15.2018 0.798207 15.3293 0.955009 15.4092C1.13327 15.5 1.36662 15.5 1.83333 15.5H5C5.46671 15.5 5.70007 15.5 5.87833 15.4092C6.03513 15.3293 6.16261 15.2018 6.24251 15.045C6.33333 14.8667 6.33333 14.6334 6.33333 14.1667V11C6.33333 10.5333 6.33333 10.2999 6.24251 10.1217C6.16261 9.96487 6.03513 9.83739 5.87833 9.7575C5.70007 9.66667 5.46671 9.66667 5 9.66667Z" stroke="var(--stroke-0, #747577)" stroke-linecap="round" stroke-linejoin="round"/>
</g>
</svg>
