<svg preserveAspectRatio="none" width="100%" height="100%" overflow="visible" style="display: block;" viewBox="0 0 24 24" fill="none" xmlns="http://www.w3.org/2000/svg">
<g id="copy-06">
<path id="Icon" d="M8.5 5H14.0222C15.7646 5 16.6358 5 17.3013 5.33909C17.8867 5.63736 18.3626 6.1133 18.6609 6.6987C19 7.3642 19 8.23539 19 9.97778V15.5M7.48889 19H13.7889C14.6601 19 15.0957 19 15.4284 18.8305C15.7211 18.6813 15.9591 18.4433 16.1082 18.1507C16.2778 17.8179 16.2778 17.3823 16.2778 16.5111V10.2111C16.2778 9.33992 16.2778 8.90432 16.1082 8.57157C15.9591 8.27887 15.7211 8.0409 15.4284 7.89177C15.0957 7.72222 14.6601 7.72222 13.7889 7.72222H7.48889C6.6177 7.72222 6.1821 7.72222 5.84935 7.89177C5.55665 8.0409 5.31868 8.27887 5.16955 8.57157C5 8.90432 5 9.33992 5 10.2111V16.5111C5 17.3823 5 17.8179 5.16955 18.1507C5.31868 18.4433 5.55665 18.6813 5.84935 18.8305C6.1821 19 6.6177 19 7.48889 19Z" stroke="var(--stroke-0, #747577)" stroke-width="1.5" stroke-linecap="round" stroke-linejoin="round"/>
</g>
</svg>
