<svg preserveAspectRatio="none" width="100%" height="100%" overflow="visible" style="display: block;" viewBox="0 0 17.6667 16" fill="none" xmlns="http://www.w3.org/2000/svg">
<path id="Icon" d="M8.83333 15.5L8.74995 15.3749C8.17109 14.5066 7.88165 14.0725 7.49925 13.7582C7.16071 13.4799 6.77064 13.2712 6.35134 13.1438C5.87771 13 5.35592 13 4.31235 13H3.16667C2.23325 13 1.76654 13 1.41002 12.8183C1.09641 12.6586 0.841445 12.4036 0.681656 12.09C0.5 11.7335 0.5 11.2668 0.5 10.3333V3.16667C0.5 2.23325 0.5 1.76654 0.681656 1.41002C0.841445 1.09641 1.09641 0.841445 1.41002 0.681656C1.76654 0.5 2.23325 0.5 3.16667 0.5H3.5C5.36684 0.5 6.30026 0.5 7.0133 0.863312C7.64051 1.18289 8.15044 1.69283 8.47002 2.32003C8.83333 3.03307 8.83333 3.96649 8.83333 5.83333M8.83333 15.5V5.83333M8.83333 15.5L8.91671 15.3749C9.49558 14.5066 9.78502 14.0725 10.1674 13.7582C10.506 13.4799 10.896 13.2712 11.3153 13.1438C11.789 13 12.3107 13 13.3543 13H14.5C15.4334 13 15.9001 13 16.2567 12.8183C16.5703 12.6586 16.8252 12.4036 16.985 12.09C17.1667 11.7335 17.1667 11.2668 17.1667 10.3333V3.16667C17.1667 2.23325 17.1667 1.76654 16.985 1.41002C16.8252 1.09641 16.5703 0.841445 16.2567 0.681656C15.9001 0.5 15.4334 0.5 14.5 0.5H14.1667C12.2998 0.5 11.3664 0.5 10.6534 0.863312C10.0262 1.18289 9.51622 1.69283 9.19665 2.32003C8.83333 3.03307 8.83333 3.96649 8.83333 5.83333" stroke="var(--stroke-0, #747577)" stroke-linecap="round" stroke-linejoin="round"/>
</svg>
