<svg preserveAspectRatio="none" width="100%" height="100%" overflow="visible" style="display: block;" viewBox="0 0 464.646 347.475" fill="none" xmlns="http://www.w3.org/2000/svg">
<g id="Abstract Design Container">
<path id="Rectangle 1889" d="M83.2861 0.404297L49.1016 156.348C46.59 167.805 46.59 179.67 49.1016 191.127L83.2861 347.07H38.4111L4.1875 190.954C1.70095 179.611 1.70093 167.864 4.1875 156.521L38.4111 0.404297H83.2861Z" fill="var(--fill-0, #2B2B2B)" stroke="var(--stroke-0, #131217)" stroke-width="0.808081"/>
<path id="Rectangle 1890" d="M159.458 0.404297L125.273 156.348C122.762 167.805 122.762 179.67 125.273 191.127L159.458 347.07H114.583L80.3594 190.954C77.8728 179.611 77.8728 167.864 80.3594 156.521L114.583 0.404297H159.458Z" fill="var(--fill-0, #2B2B2B)" stroke="var(--stroke-0, #131217)" stroke-width="0.808081"/>
<path id="Rectangle 1891" d="M235.63 0.404297L201.445 156.348C198.934 167.805 198.934 179.67 201.445 191.127L235.63 347.07H190.755L156.531 190.954C154.045 179.611 154.045 167.864 156.531 156.521L190.755 0.404297H235.63Z" fill="var(--fill-0, #2B2B2B)" stroke="var(--stroke-0, #131217)" stroke-width="0.808081"/>
<path id="Rectangle 1892" d="M311.802 0.404297L277.617 156.348C275.106 167.805 275.106 179.67 277.617 191.127L311.802 347.07H266.927L232.703 190.954C230.217 179.611 230.217 167.864 232.703 156.521L266.927 0.404297H311.802Z" fill="var(--fill-0, #2B2B2B)" stroke="var(--stroke-0, #131217)" stroke-width="0.808081"/>
<path id="Rectangle 1893" d="M387.974 0.404297L353.789 156.348C351.278 167.805 351.278 179.67 353.789 191.127L387.974 347.07H343.099L308.875 190.954C306.388 179.611 306.388 167.864 308.875 156.521L343.099 0.404297H387.974Z" fill="var(--fill-0, #2B2B2B)" stroke="var(--stroke-0, #131217)" stroke-width="0.808081"/>
<path id="Rectangle 1894" d="M464.144 0.404297L429.959 156.348C427.447 167.805 427.447 179.67 429.959 191.127L464.144 347.07H419.269L385.045 190.954C382.558 179.611 382.558 167.864 385.045 156.521L419.269 0.404297H464.144Z" fill="var(--fill-0, #2B2B2B)" stroke="var(--stroke-0, #131217)" stroke-width="0.808081"/>
</g>
</svg>
